<?xml version="1.0" encoding="UTF-8"?>
<svg xmlns="http://www.w3.org/2000/svg" xmlns:xlink="http://www.w3.org/1999/xlink" viewBox="0 0 440.43 375.15">
  <defs>
    <style>
      .cls-1 {
        fill: url(#linear-gradient);
      }

      .cls-1, .cls-2 {
        stroke-width: 0px;
      }

      .cls-3 {
        isolation: isolate;
      }

      .cls-2 {
        fill: url(#linear-gradient-2);
        mix-blend-mode: overlay;
        opacity: .6;
      }
    </style>
    <linearGradient id="linear-gradient" x1="105.08" y1="350.03" x2="316.2" y2="48.52" gradientUnits="userSpaceOnUse">
      <stop offset="0" stop-color="#202258"/>
      <stop offset=".67" stop-color="#39c1f0"/>
      <stop offset="1" stop-color="#96c93d"/>
    </linearGradient>
    <linearGradient id="linear-gradient-2" x1="105.44" y1="350.45" x2="316.64" y2="48.82" xlink:href="#linear-gradient"/>
  </defs>
  <g class="cls-3">
    <g id="Layer_1" data-name="Layer 1">
      <g>
        <path class="cls-1" d="m114.62,220.64v-60.05c0-4.63,2.4-8.94,6.33-11.38l102.69-63.63-23.01-15.09,92.06-12.88.31,73.45-21.01-13.78-101.42,65.49c-2.09,1.35-2.07,4.41.03,5.74l47.79,30.2c1.11.7,2.53.71,3.65.01l140.85-87.57c10.05-6.25,10.22-20.81.33-27.29L234.5,19.45c-9.69-6.35-22.23-6.34-31.9.04L64.15,110.73c-5.09,3.35-8.15,9.04-8.15,15.13v118.8c0,7.51,3.77,14.53,10.03,18.68l140.23,92.9c8.46,5.6,19.45,5.6,27.9,0l138.92-92.03c7.08-4.69,11.34-12.62,11.34-21.11v-55.02l-155.99,102.34c-4.99,3.27-11.45,3.28-16.45.01l-92.23-60.27c-3.21-2.1-5.14-5.67-5.14-9.5Z"/>
        <path class="cls-2" d="m114.62,220.64v-60.05c0-4.63,2.4-8.94,6.33-11.38l102.69-63.63-23.01-15.09,92.06-12.88.31,73.45-21.01-13.78-101.42,65.49c-2.09,1.35-2.07,4.41.03,5.74l47.79,30.2c1.11.7,2.53.71,3.65.01l140.85-87.57c10.05-6.25,10.22-20.81.33-27.29L229.92,16.45c-6.91-4.53-15.85-4.52-22.75.03L64.15,110.73c-5.09,3.35-8.15,9.04-8.15,15.13v123.27c0,4.72,2.37,9.12,6.3,11.73l148.56,98.42c5.67,3.75,13.03,3.75,18.7,0l147.26-97.56c4.75-3.15,7.61-8.46,7.61-14.16v-59.5l-155.99,102.34c-4.99,3.27-11.45,3.28-16.45.01l-92.23-60.27c-3.21-2.1-5.14-5.67-5.14-9.5Z"/>
      </g>
    </g>
  </g>
</svg>